<?xml version="1.0" encoding="UTF-8"?>
<svg id="_레이어_2" data-name="레이어 2" xmlns="http://www.w3.org/2000/svg" viewBox="0 0 432.61 434.19">
  <defs>
    <style>
      .cls-1 {
        fill: #303036;
      }

      .cls-2 {
        fill: #d1bc5e;
      }
    </style>
  </defs>
  <g id="_YOUR_TEXT_HERE_" data-name="[YOUR TEXT HERE]">
    <g>
      <g>
        <path class="cls-1" d="m432.61,235.44l-.46,2.06-.59,1.07-1.6,1.17-2.73.24-2.14-.31-1.8-.82-1.5-1.98-.4-1.09-.14-1.79.88-2.67.72-1.08,1.74-.77,1.63-.18.42.08,3.08.68,1.94,1.2.69,1.65.27,2.56Zm-12.79,6.15l5.67.49,4.82.33.09-.98-.03-.41,1.21.17-.32,3.73-.03,2.04-.08.94-1.17-.1.04-1.24-3.65-.29-.61,3.1-2-.24.12-3.12-4.36-.46-.09.79-.98-.04.13-2.99.46-2.84.84-.06-.06,1.2Zm4.41-5.74l1.07.33,1.2.04,1.51-.06,2.03-.1,1.08-1.04-.82-.97-1.51-.43-2.06-.22-1.84-.07-1.43.18-.37,1.53,1.15.83Zm-5.37,1.47l.11-1.24-.85-.1-2.45-.25-.17,2-.05,1.86-.27,1.93-.33,4.5-1.79-.2v-.11s.27-3.46.27-3.46l.15-2.24.13-2.46.56-5.51,1.02-.66,2.92.21,1.06.18.12-1.19,1.15.1-.11,2.8-.32,3.64.04.33-1.19-.15Z"/>
        <path class="cls-1" d="m428.35,258.03l.22-1.22-.82-.17-6.58-1.23-.24,1.3-.73,4.41-1.74-.38.56-3.44.37-2.15.33-2.4.28-1.08,1.11-.62,7.02,1.23,1.06.28.21-1.18,1.16.21-.35,2.65-.66,3.64v.44s-1.2-.28-1.2-.28Zm-9.69,5.96l1.7.31,1.17-4.55,1.65.36-.67,4.55.95.17,1.17-4.53,1.65.36-.66,4.51,1.31.22.18-.97v-.41s1.2.28,1.2.28l-.67,3.68-.21,2.03-.17.93-1.16-.21.16-1.23-4.55-.8-3.7-.8-.16.78-.98-.13.41-2.97.72-2.78.84.02-.17,1.19Zm-1.84-2.44l-.25,1.63-.46,1.59-1.07,1.96-1.2.48-1.14-.21-1.07-.58-.52-1.31-.7-2.52.08-1.62.35-2.67.99-3.91.59-1.72.96-1.22.74-.39,1.8.48,1.23.79.57,1.65-.03,2.93-.88,4.64Zm-1.38-1.14l.34-2.37-.21-1.49-.62-.31-1.31-.19-.88,1.27-.25,1-.2,1.92.41,1.2.46.71.61.59.41.12.51-.56.71-1.89Z"/>
        <path class="cls-1" d="m424.26,276.29l-.19.66,2.52.74-1.08,3.81-2.44-.65-.97,3.26-1.53-.48-.02-.49,1.04-4.06,1.62-5.48.45-.25,1.17.33-.46,2-.13.61Zm-14.73,6.68l7.53,2.14,4.67,1.24.27-.95.05-.41,1.16.4-1.02,3.6-.41,2-.26.9-1.13-.32.28-1.21-4.45-1.24-.08-.02-1.19,2.93-1.92-.61.71-3.04-5.24-1.58-.24.76-.96-.23.7-2.92.99-2.7.84.1-.29,1.16Zm11.31-4.52l-.84,1.94-.78.93-1.8.85-2.41-.2-1.63-.6-1.61-1.15-1.1-2.23-.19-1.14.2-1.79,1.37-2.46.91-.92,1.86-.43,1.63.13.4.16,2.17,1.04,1.67,1.54.37,1.75-.22,2.56Zm-7.57-1l.99.5,1.16.29,1.08.11,1.69.17,1.24-.78-.65-1.1-1.37-.72-1.25-.38-1.79-.44-1.48-.02-.65,1.35,1.02,1.02Z"/>
        <path class="cls-1" d="m419.6,297.18l-1.3,3.26-.53,1.56-.26.66-1.07-.43.36-1.01-8.39-3.33-1.85-.37-1.3.89-.46,1.04-1.6-.66.28-.99,1.15-1.61,1.35-.84.8-.05-.56-.91-.25-1.67.33-1.99,1.56.25-.14.82.18,1.22.96.89,1.03.53,8.26,3.3.28-.69.17-.3,1.02.45Zm-15.93,3.21l4.99,1.99,1.2-2.19,1.84.81-.8,2.28,4.34,1.64.21-.54,1.08.46-.81,1.98-.62,1.96-.15.19-1.11-.44.19-.48-4.15-1.73-7.36-2.97-.24.6-.94-.35.92-2.7.72-1.28.89.19-.2.56Zm-2.04,4.48l7.23,3.01,4.59,1.6.17-.42,1.08.46-.79,1.92-.64,2-.13.32-1.09-.44.23-.64-4.36-1.72-7.43-3.13-.25.64-.93-.33.92-2.72.74-1.27.83.22-.18.5Z"/>
        <path class="cls-1" d="m406.3,327.74l-.73,1.5-1.15,1.3-2.13,1.09-1.93-.11-1.81-.96-1.75-1.39-.97-1.82-.15-2.19-.76,1.56-2.16-1.44-1.55,3.1-2.07-.98.23-.8.79-1.4.8-1.92,1.78-3.3,1.88-3.36,3.47-6.53,1.85,1.49-1.79,2.54,2.45,1.13-.63,1.29.73-.78,1.79-.67,1.51.39,2.79,1.46,1.47,1.7.65,2.02-.32,2.93-2.28,4.14Zm-1.52-1.51l1.22-2.67-.3-2.12-2.17-1.66-1.73-.58-1.88.89-.88,1.25-.67,1.85-.07,1.68.45,1.33,1.92,1.41,1.13.48,1.17-.2,1.8-1.66Zm-8.54-7.81l-1.8,3.52,1.71.79.99-2.28,1.22-1.75-1.76-1.15-.37.87Z"/>
        <path class="cls-1" d="m384.99,333.03l-1.24-1.32,1.18-1.94,1.18-1.3.8.3,2.17,1.65-1.11,2.44-.82,1.02-2.14-.85Z"/>
        <path class="cls-2" d="m392.52,349.62l-1.43,1.51-3.97,4.91-1.05-.81-.3-.93-1.52-1.14-1.16-1.87.75-.9,1.7-1.68.92.9,1.66,1.39,1.02-1.24.74-.89,1.09-.71,1.54,1.46Zm-8.33-1.34l-2.52,3.49-2.64,3.42-4.17,5.43-1.65-1.19.38-.74,1.04-1.22,1.3-1.92,2.18-2.75,2.51-2.92,4.62-5.75,1.35,1.63-2.39,2.53Zm2.21,8.96l-1.43,1.51-4.23,5.24-1.05-.81-.33-.92-1.49-1.12-1.17-1.9.73-.87,1.7-1.71,1.05.98,1.54,1.32,1.3-1.59.75-.9,1.06-.71,1.56,1.47Zm-14.04-11.69l.13-.17,1.24-1.78,3.54-4.27,1.22.02,3.23,2.54.78.74.77-.92.9.72-1.65,2.27-2.29,2.85-.15.29-.89-.8.76-.95-.62-.53-2.84-2.34-1.26,1.57-1.48,1.94-1.38-1.19Zm3.56,5.96l-.67.86,1.3,1.01-2.32,3.13-1.3-1.05-1.72,2.32-1.53-.93.36-.86,2.38-3.17,1.35-1.55,1.79-2.23,1.37,1.37-1.01,1.08Zm-4.62,1.42l-.7.7-.72.52-1.55.81-.73-.59-.54-.73.11-.68.21-1.67.38-.88.92-1.29,1.64-1.56.81-.64.86-.32.49.07.93.89.48.77-.06.97-1.74,2.88-.8.76Zm-.58-1.56l.49-.71.35-.54-.18-.28-.51-.11-.54-.05-.37.39-.4.64-.06.55.02.32.09.23.17.16.18.12.77-.72Z"/>
        <path class="cls-2" d="m374.16,371.69l-1.69,1.27-1.14.43-1.98-.15-2.23-1.59-1.43-1.63-.83-1.79.14-2.48.4-1.09,1.05-1.46,2.4-1.47,1.24-.35,1.83.54,1.35.92.27.33,1.9,2.51.7,2.17-.54,1.71-1.45,2.12Zm-6.65-5.13l.6.94.89.81,1.19.93,1.61,1.24,1.5-.1v-1.27s-.86-1.31-.86-1.31l-1.43-1.51-1.35-1.25-1.2-.8-1.28.93.34,1.38Zm-6.18,3.63l2.49,2.53,3.45,3.38.7-.69.24-.33.81.91-2.67,2.63-1.34,1.53-.67.66-.83-.84.84-.92-3.26-3.28-2.57-2.79-.58.54-.72-.67,2.04-2.19,2.19-1.86.68.5-.82.87Zm4.79-8.06l-1.11,1.1-4.94,5.05-3.27,3.14-.97-1.26.2-.32-1.85-1.78-1.21-1.54,2.35-2.4,1.51-1.55,1.49-1.62,3.99-3.78,1.25.18,2.07,2.04.46.53,1-.63.84.85-1.81,2Zm-7.34,4.68l.38-.41,3.3-3.23.35-.35-.05-.05-1.73-1.87-1.39,1.37-1.07,1.23-1.69,1.49,1.88,1.81Z"/>
        <path class="cls-2" d="m357.21,387l-1.82,1.07-1.18.3-1.95-.38-1.58-1.4-.47-.67-.62-1.88.43-2.45.52-1.03,3.77-2.5,1.28-.21,1.75.75,1.24,1.07.23.36.39,1.16.44,2.23-.74,1.63-1.69,1.94Zm-4.77-4.28l.48,1,.74.88,1.35.9,1.48.09.13-1.29-.68-1.4-1.21-1.45-1.21-.93-1.3.74.2,1.44Zm-1.84-3.93l-.89.7-2.62,1.99-.27-.31-.05-1.04.17-.13-3.16-3.39-.75-.83.24-1.3,3.99-3.44,1.79-1.32,1.28.6.61,1.37,1.67,2.66.82,1.09.64-.47.23.23.56.79-.56.36-.79.45-2.02,1.58-.77-.89.6-.41-1.18-1.41-.14-.19-.43.25-1.68,1.25,1.18,1.44.82-.58.74.94Zm-4.68,6.87l1,1.28.32.38,2.16-1.33,1.19,1.63-1.84,1.57,1.21,1.52.78-.6.28-.3.7,1-2.95,2.3-1.51,1.37-.74.58-.72-.93.94-.81-2.86-3.63-1.04-1.55-.64.47-.64-.75,2.28-1.94,2.39-1.59.61.58-.92.77Zm.42-10.6l.8,1.03.45-.32,1.64-1.2-.95-1.18-.73.24-1.21,1.43Zm-.25,7.51l-2.97,2.31-1.25,1.08-.71.55-.7-.89.97-.81-1.7-2.15-1.35-1.17-1.57.11-.89.67-1.09-1.43.77-.71,1.79-.8,1.57-.03.74.32v-1.1s.6-1.51.6-1.51l1.15-1.41,1.26,1.03-.39.47-.5,1.2.31,1.17.63.98,1.58,2.03.78-.6.33-.17.64.89Z"/>
        <path class="cls-2" d="m338.39,400.6l-1.93.85-1.21.16-1.89-.6-1.8-2.06-1.41-2.32-1.43-2.71-.63-2.19.7-2.38.64-.97,1.36-1.18,2.58-.82,1.29-.06,1.74.89,1.2,1.27,2.15,3.7,1.28,2.88.22,2.12-.95,1.68-1.9,1.73Zm-7.28-9.94l.39,1.04.65.98,1.56,2.4,1.52,2.28,1.28,1.57,1.33.17.29-1.08-.52-1.46-3.19-5.27-1.03-1.53-.99-1.05-1.36.6.06,1.34Zm-6.67,1.76l4.07,6.68,2.59,4.08.84-.51.31-.27.58,1.07-3.2,1.95-1.66,1.19-.8.49-.61-1,1.03-.7-2.42-3.93-4.09-6.95-.69.39-.55-.82,2.49-1.67,2.56-1.31.54.65-1,.66Z"/>
        <path class="cls-2" d="m312.49,413.93l-1,.66-3.47,1.41-.68-1.36.37-.27-2.14-4.81.16-2.23,2.07-.93,1.46-.67,4.17-1.78,1.18.47,1.16,3.09.94,2.15.27.75.74-.11.48,1.12-1.47.75-.58.32-1.2.51-1.84.6-.65-1.26.74-.6-.62-1.41-2.03.84.78,1.78.6-.23.56,1.2Zm-2.61-4.26l1.99-.94-.72-1.64-.73.15-1.37.54.83,1.9Zm1.04-5.95l-2.77,1.25-1.95.88-2.23,1.04-4.64,1.89-1.18.5-.36-.85-.64-1.38-.57-1.71.76-.72,1.99-1.01,2.49-1.25,2.73-1.45-.53-1.14-.81.6-2.2.94-3.3,1.36-2,1.15-.6-1.3-.1-.68.71-.3,1.45-.53,1.21-.61,1.65-.87,3.68-1.57,2.55-1.27,1.14-.32.42.87.91,1.96.85.03.19.45.3.99-1.63.53-2.62,1.12-1.02.6-.75.41-3.05,1.58.38,1,1.85-.79,1.61-.8,1.77-.64,3.67-1.64.64,1.66Zm-8,6.16l.64,1.5,1.98,4.41.9-.39.35-.22.42,1.15-3.44,1.47-1.81.93-.87.37-.46-1.08,1.12-.55-.75-1.75-3.05.93-.73-1.87,2.77-1.35-.08-.2-.61-1.76-.74.29-.43-.89,2.7-1.29,2.72-.93.45.72-1.08.51Z"/>
        <path class="cls-2" d="m294.52,421.3l-1.49.46-2.42.88-3.82,1.11-.44-1.57.41-.28,2.78-.94-1.32-3.93-.94-1.46-1.41-.51-2.18.63-.53-1.72,2.09-.71,1.98-.1,1.23.45.83.59.67-1.59,1.53-1.14,2.3-1.04.87,1.5-.92.51-1.44,1.2-.38,1.15.31,1.07,1.14,3.92,2.85-.83.48.25.36,1.16-2.53.94Zm-9.82-10.61l1.19-.37-.23-.82-.68-2.36-1.92.59-1.75.65-1.89.47-4.29,1.39-.49-1.73.1-.03,3.3-1.06,2.13-.7,2.33-.81,5.32-1.55,1,.7.9,2.79.23,1.05,1.15-.33.34,1.1-2.64.95-3.5,1.08-.29.16-.31-1.16Zm-4.42,2.73l1.54,4.99,3.75-.82.53,1.94-3.53,1.2.89,2.75.94-.29.37-.18.3,1.18-3.58,1.1-1.9.74-.9.28-.35-1.12,1.17-.43-1.38-4.41-1.63-5.72-.76.21-.33-.93,2.82-1,2.8-.64.37.76-1.13.39Z"/>
        <path class="cls-1" d="m272.54,426.1l-.67.14.5,2.58-3.88.79-.54-2.46-3.34.63-.28-1.58.43-.24,4.09-.94,5.61-1.07.43.28.24,1.2-1.99.51-.6.17Zm-3.49-2.04l-2.11.14-1.19-.26-1.58-1.21-.93-2.23-.22-1.72.28-1.96,1.47-2,.93-.69,1.68-.65,2.81.09,1.23.38,1.23,1.45.63,1.51.04.43.07,2.41-.6,2.2-1.39,1.13-2.38.98Zm-2.59-7.18v1.11s.29,1.17.29,1.17l.4,1.01.62,1.58,1.26.75.68-1.08v-1.55s-.23-1.28-.23-1.28l-.43-1.79-.66-1.33-1.5.04-.44,1.38Zm-6.62-.8l1.56,7.67,1.04,4.72.96-.2.39-.14.18,1.21-3.67.74-1.96.55-.92.19-.23-1.15,1.2-.31-.94-4.52-.02-.08-3.15.29-.34-1.98,3.03-.77-1-5.38-.78.14-.24-.96,2.91-.72,2.85-.36.29.79-1.17.28Z"/>
        <path class="cls-1" d="m245.2,431.33l1.23-.13-.07-.83-.31-3.26-1.98.19-1.77.3-2.09.14-4.44.55-.13-1.77,3.69-.47,2.16-.28,2.37-.34,5.43-.5.91.89.44,3.67.03,1.09,1.19-.13.13,1.17-2.64.42-3.68.4-.42.13-.07-1.24Zm3.05-8.14l-4.23.83-4.29.55-6.79.89-.35-2.26.79-.26,1.6-.13,2.28-.44,3.49-.36,3.84-.33,7.36-.8-.2,2.37-3.49-.05Zm-4.78-3.83l1.23-.13-.07-.85-.22-2.45-2,.22-1.84.31-1.95.1-4.48.55-.15-1.79h.11s3.44-.43,3.44-.43l2.23-.28,2.44-.35,5.52-.51.85.88.36,2.91.03,1.07,1.19-.11.12,1.15-2.77.43-3.64.39-.31.1-.09-1.2Z"/>
        <path class="cls-1" d="m224.55,424.92l-1.03.22-1.73.73-.7.99-.02,1.11-.06,5.05h.94s0,1.17,0,1.17h-3.04s-2.91-.18-2.91-.18l.04-1.03h1.01s-.16-5.07-.16-5.07l-.47-1.67-1.2-.9-2.27-.04v-1.8s2.2-.07,2.2-.07l1.93.49,1.05.79.62.81,1.11-1.33,1.8-.64,2.5-.33.39,1.69Zm-9.16-3.94h1.24s.02-.86.02-.86l.04-2.46h-2.01s-1.86.11-1.86.11l-1.95-.1-4.51.07.04-1.8h.11l3.46-.05,2.25-.05,2.46-.09,5.54.08.75.96.05,2.93-.08,1.07,1.2.02v1.15s-2.8.13-2.8.13h-3.66s-.32.07-.32.07l.04-1.2Zm-5.02,1.31v5.71s.1,4.83.1,4.83h.98s.41-.07.41-.07l-.06,1.22h-3.74s-2.03.16-2.03.16h-.94s0-1.17,0-1.17l1.24-.07-.03-4.62.12-5.95-.79-.02-.04-.98,2.99-.13,2.87.21.13.83-1.2.04Z"/>
        <path class="cls-1" d="m196.04,433.78l-2.07-.45-1.07-.58-1.17-1.6-.21-2.1.11-.81.82-1.8,1.97-1.51,1.09-.4,4.47.72,1.08.71.78,1.74.18,1.63-.08.42-.5,1.12-1.19,1.94-1.65.7-2.56.28Zm-5.21-10.98l-1.55.08-4.51-.45.04-1.54.69-.07.27-4.46.38-1.92,3.37.22,2.18.14,2.16.1,5.47.55.71,1-.37,4.84-.11.74,1.13.33-.1,1.19-2.12-.07h-.6s-1.58-.14-1.58-.14l-2.61-.37.06-1.45.89-.14.62.05v-.04s.12-1.17.12-1.17l-3.14-.16-2.58-.26-.11,1.51,1.34.2-.07,1.28Zm4.61,4.6l-.33,1.07-.05,1.15.38,1.58,1.03,1.07.97-.86.45-1.49.09-1.88-.26-1.5-1.45-.34-.83,1.2Zm-5.66-9.24l2.63.09,3.1.45.17-1.77-1.92-.16h-1.63s-2.23-.33-2.23-.33l-.12,1.71Zm-1.13,6.97l-.14,1.62-.32,4.82.98.08.41-.03-.17,1.21-3.73-.31-2.04-.02-.94-.08.1-1.17,1.24.04.37-4.61.28-1.84-.79-.09.04-.98,2.99.12,2.84.45.06.84-1.2-.06Z"/>
        <path class="cls-1" d="m159.68,409.78l3.32.62,2.15.4,2.13.35,5.37,1.19.59,1.08-.94,4.76-.19.73,1.08.46-.24,1.17-1.08-.18-.18,1.08,3.02.73-.65,1.88-2.06-.82-2.46-.26-4.12-.65.29-1.84.34-.04,1.75.4.3.02.36-1.11-2.3-.6.23-1.44.9-.03.61.12v-.04s.27-1.15.27-1.15l-3.1-.53-2.53-.56-.28,1.49,1.3.36-.22,1.27-1.55-.1-4.43-.98.23-1.53h.7s.79-4.39.79-4.39l.6-1.86Zm4.6,11.82l-.31,1.49-.12.68,2.04.68,1.35-.49.9-.12,1.48.13,2.19.84.85.55.54,1.09.09,1.07-.09.11-.69,1.65-1.08,1.02-1.39.17-2.11-.13-1.67-.5-.88-.51-.88-1.03-.05-1.67.13-.32-1.17-.17-.31,1.6.57.12-.26,1.15-2.09-.45-2.04-.27-.22-.11.24-1.17.5.1.97-4.39.37-1.71-.63-.13.18-.99,2.82.43,1.39.48-.03.91-.59-.1Zm3.87,3.92l-.3.59-.08.62v.74s.07.95.07.95l.58.88.71-.6.39-.71.21-.9.15-.93-.17-1-1.04-.35-.51.68Zm-5.3-11.61l2.6.4,3.02.82.38-1.73-1.89-.39-1.62-.2-2.17-.58-.32,1.68Zm-3.34,6.48l-.44,1.59-.77,4.8.44.09-.26,1.15-2.03-.44-2.08-.27-.34-.07.24-1.15.67.12.92-4.59.53-1.81-.67-.14.16-.97,2.84.43,1.38.5-.07.86-.53-.09Z"/>
        <path class="cls-1" d="m147.33,411.77l-1.56,4.6-1.94,4.76-.07.2-.95-.19-2.21-.99,2.06-6.17,1.19-3.25-1.86-.57-.69,2.34-2.29,6.9-2.04-.59-.86-.39,1.56-5.71,1.27-3.5-1.33-.41.59-1.9.42.03,1.42.54,1.34.26,2,.69,2.05.82,3.44,1.3-.38,1.61-1.16-.38Zm-3.55,13.3l-.75-.31-.87-.44-5.07-2.29-3.22-1.16.34-1.06,1.27-.74,5.71,2.2,3.3,1.71-.09.4-.63,1.68Zm-8.29-18.25l-1.84,5.32,2.32,1.09-.72,1.88-2.38-.71-1.43,4.41.93.32.4.07-.46,1.13-3.54-1.22-1.97-.52-.89-.31.38-1.11,1.19.34,1.49-4.37,2.75-7.58-.74-.28.28-.94,2.87.86,2.64,1.14-.15.83-1.15-.35Z"/>
        <path class="cls-1" d="m124.47,406.5l-2.85-1.27-1.95-.87-2.59-1.12-4.49-2.21-1.16-.54.39-.83.61-1.39.9-1.56,1.05.09,2.08.81,2.59,1.03,3.23,1.23.5-1.16-1.32-.36-2.17-1.02-3.22-1.56-2.19-.72.57-1.32.44-.53.7.33,1.36.73,1.26.49,1.75.66,4.01,1.88,2.67,1.06,1,.64-.37.89-.86,1.98.54.66-.21.45-.53.88-1.49-.86-2.65-1.25-1.13-.36-1.14-.44-3.21-1.22-.49.95,1.82.85,1.67.67,1.99,1.05,3.74,1.69-.81,1.58Zm-2.43,2.17l-3.98-1.63-3.95-1.76-6.26-2.77.77-1.88.81.19,1.43.72,2.17.81,3.18,1.47,3.43,1.75,6.68,3.14-1.27,1.7-3.02-1.72Zm-9.83,3.51l-1.49-.46-4.1-2,.59-1.45.67.19,1-2.32,1.05-1.68,3.07,1.37,1.99.89,2.05.87,4.88,2.39.28,1.17-1.29,2.84-.38.72,1,.68-.51,1.08-1.96-.8-.54-.21-1.41-.66-2.36-1.27.54-1.35.99.25.45.21.25-.47-5.21-2.35-.24.5,1.2.66-.52,1.2Zm.1-3.64l5.26,2.38.38-.81-1.72-.81-1.53-.57-2-1.08-.4.9Z"/>
        <path class="cls-1" d="m100.1,388.71l.74.23,1.7.87,3.54,2.17,2.48,1.32.92.74-.15,1.14-2.53,3.34.52.75-.25.4-.67.84-1.44-1.09-2.66-1.63-1.01-.24-2.83,4.56,1.44.93,3.08,2.54-.18.37-1.11,1.73-.7-.5-.79-.63-4.41-3.33-2.89-1.83.68-1.14.71-.22.37-.6,2.27-3.78,1.09-1.49,1.03.2,1.01.24,2.93,1.52,1.73-2.9-1.03-.36-2.02-1.24-2.36-1.63.79-1.29Zm-2.52-.67l-4.09,6.67-2.46,4.17.84.51.38.16-.69,1.01-3.19-1.96-1.81-.94-.8-.49.62-1,1.09.59,2.4-3.95,4.33-6.81-.66-.43.48-.86,2.62,1.46,2.33,1.68-.33.78-1.04-.59Z"/>
        <path class="cls-1" d="m91.36,384.98l-.94-.47-1.81-.5-1.16.34-.7.86-5.69,7.15.74.58-.73.93-2.39-1.87-2.17-1.95.67-.78.79.62,5.53-7.3.66-1.6-.39-1.45-1.76-1.43,1.11-1.41,1.77,1.31,1.21,1.57.34,1.27v1.02s1.68-.36,1.68-.36l1.81.6,2.17,1.29-.74,1.57Zm-10.92-9.41l-1.6,2.04,3.19,2.86-1.29,1.54-3.38-2.52-1.76,2.24-.19.28,3.16,2.83-1.29,1.54-3.31-2.46-1.28,1.66.77.61.36.2-.8.92-2.94-2.31-1.69-1.14-.74-.58.73-.93,1.02.72,2.83-3.65,5.08-6.27-.61-.51.57-.8,2.44,1.75,2.12,1.94-.41.74-.97-.71Z"/>
        <path class="cls-2" d="m63.4,360.8l.85.9.64-.57,1.82-1.65-1.38-1.47-1.35-1.28-1.25-1.49-3.14-3.25,1.34-1.2.07.08,2.4,2.5,1.57,1.61,1.75,1.73,3.73,4.1-.19,1.2-2.11,2.04-.84.67.8.89-.84.79-2.01-1.95-2.5-2.67-.27-.19.9-.79Zm-7.3,11.03l-.96-.71-2.52-2.77,1.05-1.1.39.25,4.99-4.81,2.15-.61,1.58,1.62,1.13,1.14,3.11,3.3-.04,1.27-3.72,3.29-1.7,1.63-.61.51.36.66-.89.83-1.21-1.13-.5-.44-.89-.95-1.19-1.52.96-1.05.82.49,2.2-2.1-1.49-1.62-2.49,2.37.42.48-.94.94Zm4.19-4.94l1.57,1.55,1.42-1.36-.39-.63-.98-1.1-1.62,1.55Zm-.71-8.22l-4.15,3.9-3.46,3.37.67.72.33.25-.93.79-2.56-2.73-1.5-1.38-.64-.69.86-.81.9.86,2.65-2.52-1.9-2.52,1.51-1.33,2.25,2.17,3.25-2.94-.53-.59.69-.71,2.14,2.09,1.81,2.23-.52.66-.85-.84Z"/>
        <path class="cls-2" d="m44.51,352.45l-1.03-1.85-.27-1.19.42-1.94,1.63-1.79,1.47-.93,1.89-.58,2.44.48,1.02.55,1.3,1.25,1.12,2.58.18,1.28-.79,1.73-1.1,1.21-.37.22-2.15,1.09-2.24.39-1.61-.77-1.9-1.73Zm5.4-5.39l-1,.48-.94.75-.74.79-1.16,1.24-.14,1.46,1.26.16,1.41-.65,1.06-.76,1.44-1.15.92-1.16-.67-1.34-1.43.19Zm-2.09-6.33l-6.29,4.67-3.83,2.95.59.79.29.29-1.02.68-2.23-3.01-1.33-1.54-.56-.76.94-.7.79.96,3.7-2.77.07-.05-1.6-2.73,1.65-1.15,1.98,2.42,4.45-3.2-.45-.65.76-.62,1.89,2.33,1.54,2.43-.59.6-.75-.94Zm-3.67,15.76l-.41-.55-2.12,1.55-2.36-3.18,2-1.54-1.99-2.76,1.31-.92.4.29,2.59,3.3,3.35,4.62-.08.51-.98.73-1.31-1.58-.4-.47Z"/>
        <path class="cls-2" d="m38.07,327.23l.62,1.07.75-.41,2.15-1.2-1.01-1.74-1.03-1.56-.88-1.74-2.32-3.87,1.58-.86.05.09,1.78,2.98,1.16,1.92,1.31,2.09,2.7,4.84-.46,1.13-2.51,1.51-.97.46.58,1.05-1,.58-1.52-2.36-1.83-3.16-.22-.24,1.06-.56Zm-1.56,5.92l-2.47-3.54-2.24-3.69-3.56-5.85,1.93-1.24.56.62.77,1.41,1.33,1.9,1.74,3.05,1.86,3.37,3.71,6.4-2.24.78-1.37-3.21Zm-11.79-2.09l-.87-1.42-.61-1.57-.24-2.11.57-1.27,1.15-.67,1.42-.36,1.41.39,2.11,1.64,1,1.25,1.48,2.26,1.75,3.66.6,1.63.04,1.61-.67.81-1.75,1.04-1.57-.03-1.43-.73-2.08-2.06-2.31-4.07Zm1.8-.23l1.43,2.26,1.18,1.1,1.7-.39.6-.79-.14-1.65-.51-1.04-1.19-1.71-.91-.88-1.01-.5-1.18.22-.63.49-.09.87.74,2.04Z"/>
        <path class="cls-1" d="m24.23,306.32l-.82-1.32-1.77-4.17,1.37-.7.39.57,4.05-1.9,1.87-.59,1.42,3.07.92,1.98.95,1.94,2.14,5.06-.54,1.1-4.42,2-.7.26.25,1.15-1.1.48-.95-1.89-.28-.53-.64-1.45-.93-2.47,1.3-.65.55.72.25.57.04-.02,1.08-.46-1.37-2.83-1.01-2.38-1.38.63.47,1.27-1.16.56Zm3.57-3.14l1.18,2.35,1.09,2.93,1.63-.7-.78-1.76-.77-1.43-.79-2.11-1.56.71Zm-10.7,12.98l-.59-2.03v-1.22s.84-1.8.84-1.8l1.74-1.19.76-.29,1.97-.15,2.27,1.01.87.76,1.51,4.27-.11,1.29-1.15,1.52-1.34.94-.41.13-1.22.1-2.27-.12-1.4-1.11-1.47-2.11Zm5.31-3.59l-1.09.23-1.04.51-1.2,1.09-.45,1.41,1.22.44,1.52-.32,1.7-.82,1.19-.95-.4-1.44-1.45-.16Zm-1.26-7.04l-1.49.66-4.39,2.03.4.9.22.35-1.14.43-1.51-3.42-.96-1.8-.38-.86,1.08-.48.56,1.11,4.22-1.89,1.75-.63-.3-.73.88-.44,1.33,2.69.96,2.71-.71.45-.52-1.08Z"/>
        <path class="cls-1" d="m9.68,294.03l.36,1.12.8-.23,5.46-1.73,5.16-1.14-.41-1.28-1.45-4.3.82-.58.78-.23,1.26,3.71.73,2.13.78,2.22.29,1.1-.68,1.03-5.81,1.44-5.21,1.7-1.06.25.37,1.16-1.1.35-.93-2.42-1.16-3.62-.18-.35,1.18-.31Zm10-10.98l-7.45,2.39-4.58,1.56.3.94.19.37-1.18.31-1.14-3.56-.76-1.89-.29-.9,1.12-.36.44,1.16,4.39-1.43,7.72-2.34-.22-.76.92-.34,1.04,2.81.67,2.79-.75.38-.41-1.13Z"/>
        <path class="cls-1" d="m3.28,279.22l-.13-.8-.07-1.06-.61-5.27-.68-3.36,1.29-.3,1.29.82.95,5.14,6.82-1.55,2.9-.64.45-.14-.99-4.1-.31-2.38,1.58-.38.32.76.29,1.56.68,2.26.29,1.34.36,1.39.51,2.6-1.32,1.09-1.67-.06-9.43,1.61-.19.04.05.93-.39.13-2,.38Zm11.49-15.91l-7.65,1.64-4.71,1.1.21.96.14.36-1.2.21-.78-3.66-.57-1.96-.2-.92,1.15-.25.32,1.2,4.51-.99.08-.02-.32-3.15,1.98-.36.8,3.02,5.37-1.06-.14-.78.95-.25.75,2.9.39,2.85-.79.3-.29-1.16Z"/>
        <path class="cls-1" d="m13.84,249.61l1.8.19.37,2.24-.04,1.76-.8.29-2.72.16-.75-2.57-.04-1.31,2.18-.75Z"/>
        <path class="cls-1" d="m5.69,225.35l3.6.38.74,4.47-.09,3.51-1.6.58-5.44.33-1.49-5.14-.08-2.62,4.36-1.51Z"/>
        <path class="cls-1" d="m427.86,198.97l3.6.38.74,4.47-.09,3.51-1.6.58-5.44.33-1.49-5.14-.08-2.62,4.36-1.51Z"/>
      </g>
      <g>
        <path class="cls-1" d="m0,198.75l.46-2.06.59-1.07,1.6-1.17,2.73-.24,2.14.31,1.8.82,1.5,1.98.4,1.09.14,1.79-.88,2.67-.72,1.08-1.74.77-1.63.18-.42-.08-3.08-.68-1.94-1.2-.69-1.65L0,198.75Zm12.79-6.15l-5.67-.49-4.82-.33-.09.98.03.41-1.21-.17.32-3.73.03-2.04.08-.94,1.17.1-.04,1.24,3.65.29.61-3.1,2,.24-.12,3.12,4.36.46.09-.79.98.04-.13,2.99-.46,2.84-.84.06.06-1.2Zm-4.41,5.74l-1.07-.33-1.2-.04-1.51.06-2.03.1-1.08,1.04.82.97,1.51.43,2.06.22,1.84.07,1.43-.18.37-1.53-1.15-.83Zm5.37-1.47l-.11,1.24.85.1,2.45.25.17-2,.05-1.86.27-1.93.33-4.5,1.79.2v.11s-.27,3.46-.27,3.46l-.15,2.24-.13,2.46-.56,5.51-1.02.66-2.92-.21-1.06-.18-.12,1.19-1.15-.1.11-2.8.32-3.64-.04-.33,1.19.15Z"/>
        <path class="cls-1" d="m4.26,176.16l-.22,1.22.82.17,6.58,1.23.24-1.3.73-4.41,1.74.38-.56,3.44-.37,2.15-.33,2.4-.28,1.08-1.11.62-7.02-1.23-1.06-.28-.21,1.18-1.16-.21.35-2.65.66-3.64v-.44s1.2.28,1.2.28Zm9.69-5.96l-1.7-.31-1.17,4.55-1.65-.36.67-4.55-.95-.17-1.17,4.53-1.65-.36.66-4.51-1.31-.22-.18.97v.41s-1.2-.28-1.2-.28l.67-3.68.21-2.03.17-.93,1.16.21-.16,1.23,4.55.8,3.7.8.16-.78.98.13-.41,2.97-.72,2.78-.84-.02.17-1.19Zm1.84,2.44l.25-1.63.46-1.59,1.07-1.96,1.2-.48,1.14.21,1.07.58.52,1.31.7,2.52-.08,1.62-.35,2.67-.99,3.91-.59,1.72-.96,1.22-.74.39-1.8-.48-1.23-.79-.57-1.65.03-2.93.88-4.64Zm1.38,1.14l-.34,2.37.21,1.49.62.31,1.31.19.88-1.27.25-1,.2-1.92-.41-1.2-.46-.71-.61-.59-.41-.12-.51.56-.71,1.89Z"/>
        <path class="cls-1" d="m8.35,157.9l.19-.66-2.52-.74,1.08-3.81,2.44.65.97-3.26,1.53.48.02.49-1.04,4.06-1.62,5.48-.45.25-1.17-.33.46-2,.13-.61Zm14.73-6.68l-7.53-2.14-4.67-1.24-.27.95-.05.41-1.16-.4,1.02-3.6.41-2,.26-.9,1.13.32-.28,1.21,4.45,1.24.08.02,1.19-2.93,1.92.61-.71,3.04,5.24,1.58.24-.76.96.23-.7,2.92-.99,2.7-.84-.1.29-1.16Zm-11.31,4.52l.84-1.94.78-.93,1.8-.85,2.41.2,1.63.6,1.61,1.15,1.1,2.23.19,1.14-.2,1.79-1.37,2.46-.91.92-1.86.43-1.63-.13-.4-.16-2.17-1.04-1.67-1.54-.37-1.75.22-2.56Zm7.57,1l-.99-.5-1.16-.29-1.08-.11-1.69-.17-1.24.78.65,1.1,1.37.72,1.25.38,1.79.44,1.48.02.65-1.35-1.02-1.02Z"/>
        <path class="cls-1" d="m13.01,137.02l1.3-3.26.53-1.56.26-.66,1.07.43-.36,1.01,8.39,3.33,1.85.37,1.3-.89.46-1.04,1.6.66-.28.99-1.15,1.61-1.35.84-.8.05.56.91.25,1.67-.33,1.99-1.56-.25.14-.82-.18-1.22-.96-.89-1.03-.53-8.26-3.3-.28.69-.17.3-1.02-.45Zm15.93-3.21l-4.99-1.99-1.2,2.19-1.84-.81.8-2.28-4.34-1.64-.21.54-1.08-.46.81-1.98.62-1.96.15-.19,1.11.44-.19.48,4.15,1.73,7.36,2.97.24-.6.94.35-.92,2.7-.72,1.28-.89-.19.2-.56Zm2.04-4.48l-7.23-3.01-4.59-1.6-.17.42-1.08-.46.79-1.92.64-2,.13-.32,1.09.44-.23.64,4.36,1.72,7.43,3.13.25-.64.93.33-.92,2.72-.74,1.27-.83-.22.18-.5Z"/>
        <path class="cls-1" d="m26.31,106.46l.73-1.5,1.15-1.3,2.13-1.09,1.93.11,1.81.96,1.75,1.39.97,1.82.15,2.19.76-1.56,2.16,1.44,1.55-3.1,2.07.98-.23.8-.79,1.4-.8,1.92-1.78,3.3-1.88,3.36-3.47,6.53-1.85-1.49,1.79-2.54-2.45-1.13.63-1.29-.73.78-1.79.67-1.51-.39-2.79-1.46-1.47-1.7-.65-2.02.32-2.93,2.28-4.14Zm1.52,1.51l-1.22,2.67.3,2.12,2.17,1.66,1.73.58,1.88-.89.88-1.25.67-1.85.07-1.68-.45-1.33-1.92-1.41-1.13-.48-1.17.2-1.8,1.66Zm8.54,7.81l1.8-3.52-1.71-.79-.99,2.28-1.22,1.75,1.76,1.15.37-.87Z"/>
        <path class="cls-1" d="m47.62,101.16l1.24,1.32-1.18,1.94-1.18,1.3-.8-.3-2.17-1.65,1.11-2.44.82-1.02,2.14.85Z"/>
        <path class="cls-2" d="m40.09,84.58l1.43-1.51,3.97-4.91,1.05.81.3.93,1.52,1.14,1.16,1.87-.75.9-1.7,1.68-.92-.9-1.66-1.39-1.02,1.24-.74.89-1.09.71-1.54-1.46Zm8.33,1.34l2.52-3.49,2.64-3.42,4.17-5.43,1.65,1.19-.38.74-1.04,1.22-1.3,1.92-2.18,2.75-2.51,2.92-4.62,5.75-1.35-1.63,2.39-2.53Zm-2.21-8.96l1.43-1.51,4.23-5.24,1.05.81.33.92,1.49,1.12,1.17,1.9-.73.87-1.7,1.71-1.05-.98-1.54-1.32-1.3,1.59-.75.9-1.06.71-1.56-1.47Zm14.04,11.69l-.13.17-1.24,1.78-3.54,4.27-1.22-.02-3.23-2.54-.78-.74-.77.92-.9-.72,1.65-2.27,2.29-2.85.15-.29.89.8-.76.95.62.53,2.84,2.34,1.26-1.57,1.48-1.94,1.38,1.19Zm-3.56-5.96l.67-.86-1.3-1.01,2.32-3.13,1.3,1.05,1.72-2.32,1.53.93-.36.86-2.38,3.17-1.35,1.55-1.79,2.23-1.37-1.37,1.01-1.08Zm4.62-1.42l.7-.7.72-.52,1.55-.81.73.59.54.73-.11.68-.21,1.67-.38.88-.92,1.29-1.64,1.56-.81.64-.86.32-.49-.07-.93-.89-.48-.77.06-.97,1.74-2.88.8-.76Zm.58,1.56l-.49.71-.35.54.18.28.51.11.54.05.37-.39.4-.64.06-.55-.02-.32-.09-.23-.17-.16-.18-.12-.77.72Z"/>
        <path class="cls-2" d="m58.44,62.51l1.69-1.27,1.14-.43,1.98.15,2.23,1.59,1.43,1.63.83,1.79-.14,2.48-.4,1.09-1.05,1.46-2.4,1.47-1.24.35-1.83-.54-1.35-.92-.27-.33-1.9-2.51-.7-2.17.54-1.71,1.45-2.12Zm6.65,5.13l-.6-.94-.89-.81-1.19-.93-1.61-1.24-1.5.1v1.27s.86,1.31.86,1.31l1.43,1.51,1.35,1.25,1.2.8,1.28-.93-.34-1.38Zm6.18-3.63l-2.49-2.53-3.45-3.38-.7.69-.24.33-.81-.91,2.67-2.63,1.34-1.53.67-.66.83.84-.84.92,3.26,3.28,2.57,2.79.58-.54.72.67-2.04,2.19-2.19,1.86-.68-.5.82-.87Zm-4.79,8.06l1.11-1.1,4.94-5.05,3.27-3.14.97,1.26-.2.32,1.85,1.78,1.21,1.54-2.35,2.4-1.51,1.55-1.49,1.62-3.99,3.78-1.25-.18-2.07-2.04-.46-.53-1,.63-.84-.85,1.81-2Zm7.34-4.68l-.38.41-3.3,3.23-.35.35.05.05,1.73,1.87,1.39-1.37,1.07-1.23,1.69-1.49-1.88-1.81Z"/>
        <path class="cls-2" d="m75.39,47.19l1.82-1.07,1.18-.3,1.95.38,1.58,1.4.47.67.62,1.88-.43,2.45-.52,1.03-3.77,2.5-1.28.21-1.75-.75-1.24-1.07-.23-.36-.39-1.16-.44-2.23.74-1.63,1.69-1.94Zm4.77,4.28l-.48-1-.74-.88-1.35-.9-1.48-.09-.13,1.29.68,1.4,1.21,1.45,1.21.93,1.3-.74-.2-1.44Zm1.84,3.93l.89-.7,2.62-1.99.27.31.05,1.04-.17.13,3.16,3.39.75.83-.24,1.3-3.99,3.44-1.79,1.32-1.28-.6-.61-1.37-1.67-2.66-.82-1.09-.64.47-.23-.23-.56-.79.56-.36.79-.45,2.02-1.58.77.89-.6.41,1.18,1.41.14.19.43-.25,1.68-1.25-1.18-1.44-.82.58-.74-.94Zm4.68-6.87l-1-1.28-.32-.38-2.16,1.33-1.19-1.63,1.84-1.57-1.21-1.52-.78.6-.28.3-.7-1,2.95-2.3,1.51-1.37.74-.58.72.93-.94.81,2.86,3.63,1.04,1.55.64-.47.64.75-2.28,1.94-2.39,1.59-.61-.58.92-.77Zm-.42,10.6l-.8-1.03-.45.32-1.64,1.2.95,1.18.73-.24,1.21-1.43Zm.25-7.51l2.97-2.31,1.25-1.08.71-.55.7.89-.97.81,1.7,2.15,1.35,1.17,1.57-.11.89-.67,1.09,1.43-.77.71-1.79.8-1.57.03-.74-.32v1.1s-.6,1.51-.6,1.51l-1.15,1.41-1.26-1.03.39-.47.5-1.2-.31-1.17-.63-.98-1.58-2.03-.78.6-.33.17-.64-.89Z"/>
        <path class="cls-2" d="m94.22,33.59l1.93-.85,1.21-.16,1.89.6,1.8,2.06,1.41,2.32,1.43,2.71.63,2.19-.7,2.38-.64.97-1.36,1.18-2.58.82-1.29.06-1.74-.89-1.2-1.27-2.15-3.7-1.28-2.88-.22-2.12.95-1.68,1.9-1.73Zm7.28,9.94l-.39-1.04-.65-.98-1.56-2.4-1.52-2.28-1.28-1.57-1.33-.17-.29,1.08.52,1.46,3.19,5.27,1.03,1.53.99,1.05,1.36-.6-.06-1.34Zm6.67-1.76l-4.07-6.68-2.59-4.08-.84.51-.31.27-.58-1.07,3.2-1.95,1.66-1.19.8-.49.61,1-1.03.7,2.42,3.93,4.09,6.95.69-.39.55.82-2.49,1.67-2.56,1.31-.54-.65,1-.66Z"/>
        <path class="cls-2" d="m120.12,20.26l1-.66,3.47-1.41.68,1.36-.37.27,2.14,4.81-.16,2.23-2.07.93-1.46.67-4.17,1.78-1.18-.47-1.16-3.09-.94-2.15-.27-.75-.74.11-.48-1.12,1.47-.75.58-.32,1.2-.51,1.84-.6.65,1.26-.74.6.62,1.41,2.03-.84-.78-1.78-.6.23-.56-1.2Zm2.61,4.26l-1.99.94.72,1.64.73-.15,1.37-.54-.83-1.9Zm-1.04,5.95l2.77-1.25,1.95-.88,2.23-1.04,4.64-1.89,1.18-.5.36.85.64,1.38.57,1.71-.76.72-1.99,1.01-2.49,1.25-2.73,1.45.53,1.14.81-.6,2.2-.94,3.3-1.36,2-1.15.6,1.3.1.68-.71.3-1.45.53-1.21.61-1.65.87-3.68,1.57-2.55,1.27-1.14.32-.42-.87-.91-1.96-.85-.03-.19-.45-.3-.99,1.63-.53,2.62-1.12,1.02-.6.75-.41,3.05-1.58-.38-1-1.85.79-1.61.8-1.77.64-3.67,1.64-.64-1.66Zm8-6.16l-.64-1.5-1.98-4.41-.9.39-.35.22-.42-1.15,3.44-1.47,1.81-.93.87-.37.46,1.08-1.12.55.75,1.75,3.05-.93.73,1.87-2.77,1.35.08.2.61,1.76.74-.29.43.89-2.7,1.29-2.72.93-.45-.72,1.08-.51Z"/>
        <path class="cls-2" d="m138.08,12.89l1.49-.46,2.42-.88,3.82-1.11.44,1.57-.41.28-2.78.94,1.32,3.93.94,1.46,1.41.51,2.18-.63.53,1.72-2.09.71-1.98.1-1.23-.45-.83-.59-.67,1.59-1.53,1.14-2.3,1.04-.87-1.5.92-.51,1.44-1.2.38-1.15-.31-1.07-1.14-3.92-2.85.83-.48-.25-.36-1.16,2.53-.94Zm9.82,10.61l-1.19.37.23.82.68,2.36,1.92-.59,1.75-.65,1.89-.47,4.29-1.39.49,1.73-.1.03-3.3,1.06-2.13.7-2.33.81-5.32,1.55-1-.7-.9-2.79-.23-1.05-1.15.33-.34-1.1,2.64-.95,3.5-1.08.29-.16.31,1.16Zm4.42-2.73l-1.54-4.99-3.75.82-.53-1.94,3.53-1.2-.89-2.75-.94.29-.37.18-.3-1.18,3.58-1.1,1.9-.74.9-.28.35,1.12-1.17.43,1.38,4.41,1.63,5.72.76-.21.33.93-2.82,1-2.8.64-.37-.76,1.13-.39Z"/>
        <path class="cls-1" d="m160.06,8.09l.67-.14-.5-2.58,3.88-.79.54,2.46,3.34-.63.28,1.58-.43.24-4.09.94-5.61,1.07-.43-.28-.24-1.2,1.99-.51.6-.17Zm3.49,2.04l2.11-.14,1.19.26,1.58,1.21.93,2.23.22,1.72-.28,1.96-1.47,2-.93.69-1.68.65-2.81-.09-1.23-.38-1.23-1.45-.63-1.51-.04-.43-.07-2.41.6-2.2,1.39-1.13,2.38-.98Zm2.59,7.18v-1.11s-.29-1.17-.29-1.17l-.4-1.01-.62-1.58-1.26-.75-.68,1.08v1.55s.23,1.28.23,1.28l.43,1.79.66,1.33,1.5-.04.44-1.38Zm6.62.8l-1.56-7.67-1.04-4.72-.96.2-.39.14-.18-1.21,3.67-.74,1.96-.55.92-.19.23,1.15-1.2.31.94,4.52.02.08,3.15-.29.34,1.98-3.03.77,1,5.38.78-.14.24.96-2.91.72-2.85.36-.29-.79,1.17-.28Z"/>
        <path class="cls-1" d="m187.41,2.86l-1.23.13.07.83.31,3.26,1.98-.19,1.77-.3,2.09-.14,4.44-.55.13,1.77-3.69.47-2.16.28-2.37.34-5.43.5-.91-.89-.44-3.67-.03-1.09-1.19.13-.13-1.17,2.64-.42,3.68-.4.42-.13.07,1.24Zm-3.05,8.14l4.23-.83,4.29-.55,6.79-.89.35,2.26-.79.26-1.6.13-2.28.44-3.49.36-3.84.33-7.36.8.2-2.37,3.49.05Zm4.78,3.83l-1.23.13.07.85.22,2.45,2-.22,1.84-.31,1.95-.1,4.48-.55.15,1.79h-.11s-3.44.43-3.44.43l-2.23.28-2.44.35-5.52.51-.85-.88-.36-2.91-.03-1.07-1.19.11-.12-1.15,2.77-.43,3.64-.39.31-.1.09,1.2Z"/>
        <path class="cls-1" d="m208.05,9.27l1.03-.22,1.73-.73.7-.99.02-1.11.06-5.05h-.94s0-1.17,0-1.17h3.04s2.91.18,2.91.18l-.04,1.03h-1.01s.16,5.07.16,5.07l.47,1.67,1.2.9,2.27.04v1.8s-2.2.07-2.2.07l-1.93-.49-1.05-.79-.62-.81-1.11,1.33-1.8.64-2.5.33-.39-1.69Zm9.16,3.94h-1.24s-.02.86-.02.86l-.04,2.46h2.01s1.86-.11,1.86-.11l1.95.1,4.51-.07-.04,1.8h-.11s-3.46.05-3.46.05l-2.25.05-2.46.09-5.54-.08-.75-.96-.05-2.93.08-1.07-1.2-.02v-1.15s2.8-.13,2.8-.13h3.66s.32-.07.32-.07l-.04,1.2Zm5.02-1.31v-5.71s-.1-4.83-.1-4.83h-.98s-.41.07-.41.07l.06-1.22h3.74s2.03-.16,2.03-.16h.94s0,1.17,0,1.17l-1.24.07.03,4.62-.12,5.95.79.02.04.98-2.99.13-2.87-.21-.13-.83,1.2-.04Z"/>
        <path class="cls-1" d="m236.56.42l2.07.45,1.07.58,1.17,1.6.21,2.1-.11.81-.82,1.8-1.97,1.51-1.09.4-4.47-.72-1.08-.71-.78-1.74-.18-1.63.08-.42.5-1.12,1.19-1.94,1.65-.7,2.56-.28Zm5.21,10.98l1.55-.08,4.51.45-.04,1.54-.69.07-.27,4.46-.38,1.92-3.37-.22-2.18-.14-2.16-.1-5.47-.55-.71-1,.37-4.84.11-.74-1.13-.33.1-1.19,2.12.07h.6s1.58.14,1.58.14l2.61.37-.06,1.45-.89.14-.62-.05v.04s-.12,1.17-.12,1.17l3.14.16,2.58.26.11-1.51-1.34-.2.07-1.28Zm-4.61-4.6l.33-1.07.05-1.15-.38-1.58-1.03-1.07-.97.86-.45,1.49-.09,1.88.26,1.5,1.45.34.83-1.2Zm5.66,9.24l-2.63-.09-3.1-.45-.17,1.77,1.92.16h1.63s2.23.33,2.23.33l.12-1.71Zm1.13-6.97l.14-1.62.32-4.82-.98-.08-.41.03.17-1.21,3.73.31,2.04.02.94.08-.1,1.17-1.24-.04-.37,4.61-.28,1.84.79.09-.04.98-2.99-.12-2.84-.45-.06-.84,1.2.06Z"/>
        <path class="cls-1" d="m272.93,24.41l-3.32-.62-2.15-.4-2.13-.35-5.37-1.19-.59-1.08.94-4.76.19-.73-1.08-.46.24-1.17,1.08.18.18-1.08-3.02-.73.65-1.88,2.06.82,2.46.26,4.12.65-.29,1.84-.34.04-1.75-.4-.3-.02-.36,1.11,2.3.6-.23,1.44-.9.03-.61-.12v.04s-.27,1.15-.27,1.15l3.1.53,2.53.56.28-1.49-1.3-.36.22-1.27,1.55.1,4.43.98-.23,1.53h-.7s-.79,4.39-.79,4.39l-.6,1.86Zm-4.6-11.82l.31-1.49.12-.68-2.04-.68-1.35.49-.9.12-1.48-.13-2.19-.84-.85-.55-.54-1.09-.09-1.07.09-.11.69-1.65,1.08-1.02,1.39-.17,2.11.13,1.67.5.88.51.88,1.03.05,1.67-.13.32,1.17.17.31-1.6-.57-.12.26-1.15,2.09.45,2.04.27.22.11-.24,1.17-.5-.1-.97,4.39-.37,1.71.63.13-.18.99-2.82-.43-1.39-.48.03-.91.59.1Zm-3.87-3.92l.3-.59.08-.62v-.74s-.07-.95-.07-.95l-.58-.88-.71.6-.39.71-.21.9-.15.93.17,1,1.04.35.51-.68Zm5.3,11.61l-2.6-.4-3.02-.82-.38,1.73,1.89.39,1.62.2,2.17.58.32-1.68Zm3.34-6.48l.44-1.59.77-4.8-.44-.09.26-1.15,2.03.44,2.08.27.34.07-.24,1.15-.67-.12-.92,4.59-.53,1.81.67.14-.16.97-2.84-.43-1.38-.5.07-.86.53.09Z"/>
        <path class="cls-1" d="m285.27,22.43l1.56-4.6,1.94-4.76.07-.2.95.19,2.21.99-2.06,6.17-1.19,3.25,1.86.57.69-2.34,2.29-6.9,2.04.59.86.39-1.56,5.71-1.27,3.5,1.33.41-.59,1.9-.42-.03-1.42-.54-1.34-.26-2-.69-2.05-.82-3.44-1.3.38-1.61,1.16.38Zm3.55-13.3l.75.31.87.44,5.07,2.29,3.22,1.16-.34,1.06-1.27.74-5.71-2.2-3.3-1.71.09-.4.63-1.68Zm8.29,18.25l1.84-5.32-2.32-1.09.72-1.88,2.38.71,1.43-4.41-.93-.32-.4-.07.46-1.13,3.54,1.22,1.97.52.89.31-.38,1.11-1.19-.34-1.49,4.37-2.75,7.58.74.28-.28.94-2.87-.86-2.64-1.14.15-.83,1.15.35Z"/>
        <path class="cls-1" d="m308.14,27.69l2.85,1.27,1.95.87,2.59,1.12,4.49,2.21,1.16.54-.39.83-.61,1.39-.9,1.56-1.05-.09-2.08-.81-2.59-1.03-3.23-1.23-.5,1.16,1.32.36,2.17,1.02,3.22,1.56,2.19.72-.57,1.32-.44.53-.7-.33-1.36-.73-1.26-.49-1.75-.66-4.01-1.88-2.67-1.06-1-.64.37-.89.86-1.98-.54-.66.21-.45.53-.88,1.49.86,2.65,1.25,1.13.36,1.14.44,3.21,1.22.49-.95-1.82-.85-1.67-.67-1.99-1.05-3.74-1.69.81-1.58Zm2.43-2.17l3.98,1.63,3.95,1.76,6.26,2.77-.77,1.88-.81-.19-1.43-.72-2.17-.81-3.18-1.47-3.43-1.75-6.68-3.14,1.27-1.7,3.02,1.72Zm9.83-3.51l1.49.46,4.1,2-.59,1.45-.67-.19-1,2.32-1.05,1.68-3.07-1.37-1.99-.89-2.05-.87-4.88-2.39-.28-1.17,1.29-2.84.38-.72-1-.68.51-1.08,1.96.8.54.21,1.41.66,2.36,1.27-.54,1.35-.99-.25-.45-.21-.25.47,5.21,2.35.24-.5-1.2-.66.52-1.2Zm-.1,3.64l-5.26-2.38-.38.81,1.72.81,1.53.57,2,1.08.4-.9Z"/>
        <path class="cls-1" d="m332.51,45.49l-.74-.23-1.7-.87-3.54-2.17-2.48-1.32-.92-.74.15-1.14,2.53-3.34-.52-.75.25-.4.67-.84,1.44,1.09,2.66,1.63,1.01.24,2.83-4.56-1.44-.93-3.08-2.54.18-.37,1.11-1.73.7.5.79.63,4.41,3.33,2.89,1.83-.68,1.14-.71.22-.37.6-2.27,3.78-1.09,1.49-1.03-.2-1.01-.24-2.93-1.52-1.73,2.9,1.03.36,2.02,1.24,2.36,1.63-.79,1.29Zm2.52.67l4.09-6.67,2.46-4.17-.84-.51-.38-.16.69-1.01,3.19,1.96,1.81.94.8.49-.62,1-1.09-.59-2.4,3.95-4.33,6.81.66.43-.48.86-2.62-1.46-2.33-1.68.33-.78,1.04.59Z"/>
        <path class="cls-1" d="m341.24,49.21l.94.47,1.81.5,1.16-.34.7-.86,5.69-7.15-.74-.58.73-.93,2.39,1.87,2.17,1.95-.67.78-.79-.62-5.53,7.3-.66,1.6.39,1.45,1.76,1.43-1.11,1.41-1.77-1.31-1.21-1.57-.34-1.27v-1.02s-1.68.36-1.68.36l-1.81-.6-2.17-1.29.74-1.57Zm10.92,9.41l1.6-2.04-3.19-2.86,1.29-1.54,3.38,2.52,1.76-2.24.19-.28-3.16-2.83,1.29-1.54,3.31,2.46,1.28-1.66-.77-.61-.36-.2.8-.92,2.94,2.31,1.69,1.14.74.58-.73.93-1.02-.72-2.83,3.65-5.08,6.27.61.51-.57.8-2.44-1.75-2.12-1.94.41-.74.97.71Z"/>
        <path class="cls-2" d="m369.21,73.39l-.85-.9-.64.57-1.82,1.65,1.38,1.47,1.35,1.28,1.25,1.49,3.14,3.25-1.34,1.2-.07-.08-2.4-2.5-1.57-1.61-1.75-1.73-3.73-4.1.19-1.2,2.11-2.04.84-.67-.8-.89.84-.79,2.01,1.95,2.5,2.67.27.19-.9.79Zm7.3-11.03l.96.71,2.52,2.77-1.05,1.1-.39-.25-4.99,4.81-2.15.61-1.58-1.62-1.13-1.14-3.11-3.3.04-1.27,3.72-3.29,1.7-1.63.61-.51-.36-.66.89-.83,1.21,1.13.5.44.89.95,1.19,1.52-.96,1.05-.82-.49-2.2,2.1,1.49,1.62,2.49-2.37-.42-.48.94-.94Zm-4.19,4.94l-1.57-1.55-1.42,1.36.39.63.98,1.1,1.62-1.55Zm.71,8.22l4.15-3.9,3.46-3.37-.67-.72-.33-.25.93-.79,2.56,2.73,1.5,1.38.64.69-.86.81-.9-.86-2.65,2.52,1.9,2.52-1.51,1.33-2.25-2.17-3.25,2.94.53.59-.69.71-2.14-2.09-1.81-2.23.52-.66.85.84Z"/>
        <path class="cls-2" d="m388.1,81.74l1.03,1.85.27,1.19-.42,1.94-1.63,1.79-1.47.93-1.89.58-2.44-.48-1.02-.55-1.3-1.25-1.12-2.58-.18-1.28.79-1.73,1.1-1.21.37-.22,2.15-1.09,2.24-.39,1.61.77,1.9,1.73Zm-5.4,5.39l1-.48.94-.75.74-.79,1.16-1.24.14-1.46-1.26-.16-1.41.65-1.06.76-1.44,1.15-.92,1.16.67,1.34,1.43-.19Zm2.09,6.33l6.29-4.67,3.83-2.95-.59-.79-.29-.29,1.02-.68,2.23,3.01,1.33,1.54.56.76-.94.7-.79-.96-3.7,2.77-.07.05,1.6,2.73-1.65,1.15-1.98-2.42-4.45,3.2.45.65-.76.62-1.89-2.33-1.54-2.43.59-.6.75.94Zm3.67-15.76l.41.55,2.12-1.55,2.36,3.18-2,1.54,1.99,2.76-1.31.92-.4-.29-2.59-3.3-3.35-4.62.08-.51.98-.73,1.31,1.58.4.47Z"/>
        <path class="cls-2" d="m394.54,106.96l-.62-1.07-.75.41-2.15,1.2,1.01,1.74,1.03,1.56.88,1.74,2.32,3.87-1.58.86-.05-.09-1.78-2.98-1.16-1.92-1.31-2.09-2.7-4.84.46-1.13,2.51-1.51.97-.46-.58-1.05,1-.58,1.52,2.36,1.83,3.16.22.24-1.06.56Zm1.56-5.92l2.47,3.54,2.24,3.69,3.56,5.85-1.93,1.24-.56-.62-.77-1.41-1.33-1.9-1.74-3.05-1.86-3.37-3.71-6.4,2.24-.78,1.37,3.21Zm11.79,2.09l.87,1.42.61,1.57.24,2.11-.57,1.27-1.15.67-1.42.36-1.41-.39-2.11-1.64-1-1.25-1.48-2.26-1.75-3.66-.6-1.63-.04-1.61.67-.81,1.75-1.04,1.57.03,1.43.73,2.08,2.06,2.31,4.07Zm-1.8.23l-1.43-2.26-1.18-1.1-1.7.39-.6.79.14,1.65.51,1.04,1.19,1.71.91.88,1.01.5,1.18-.22.63-.49.09-.87-.74-2.04Z"/>
        <path class="cls-1" d="m408.38,127.87l.82,1.32,1.77,4.17-1.37.7-.39-.57-4.05,1.9-1.87.59-1.42-3.07-.92-1.98-.95-1.94-2.14-5.06.54-1.1,4.42-2,.7-.26-.25-1.15,1.1-.48.95,1.89.28.53.64,1.45.93,2.47-1.3.65-.55-.72-.25-.57-.04.02-1.08.46,1.37,2.83,1.01,2.38,1.38-.63-.47-1.27,1.16-.56Zm-3.57,3.14l-1.18-2.35-1.09-2.93-1.63.7.78,1.76.77,1.43.79,2.11,1.56-.71Zm10.7-12.98l.59,2.03v1.22s-.84,1.8-.84,1.8l-1.74,1.19-.76.29-1.97.15-2.27-1.01-.87-.76-1.51-4.27.11-1.29,1.15-1.52,1.34-.94.41-.13,1.22-.1,2.27.12,1.4,1.11,1.47,2.11Zm-5.31,3.59l1.09-.23,1.04-.51,1.2-1.09.45-1.41-1.22-.44-1.52.32-1.7.82-1.19.95.4,1.44,1.45.16Zm1.26,7.04l1.49-.66,4.39-2.03-.4-.9-.22-.35,1.14-.43,1.51,3.42.96,1.8.38.86-1.08.48-.56-1.11-4.22,1.89-1.75.63.3.73-.88.44-1.33-2.69-.96-2.71.71-.45.52,1.08Z"/>
        <path class="cls-1" d="m422.93,140.16l-.36-1.12-.8.23-5.46,1.73-5.16,1.14.41,1.28,1.45,4.3-.82.58-.78.23-1.26-3.71-.73-2.13-.78-2.22-.29-1.1.68-1.03,5.81-1.44,5.21-1.7,1.06-.25-.37-1.16,1.1-.35.93,2.42,1.16,3.62.18.35-1.18.31Zm-10,10.98l7.45-2.39,4.58-1.56-.3-.94-.19-.37,1.18-.31,1.14,3.56.76,1.89.29.9-1.12.36-.44-1.16-4.39,1.43-7.72,2.34.22.76-.92.34-1.04-2.81-.67-2.79.75-.38.41,1.13Z"/>
        <path class="cls-1" d="m429.32,154.98l.13.8.07,1.06.61,5.27.68,3.36-1.29.3-1.29-.82-.95-5.14-6.82,1.55-2.9.64-.45.14.99,4.1.31,2.38-1.58.38-.32-.76-.29-1.56-.68-2.26-.29-1.34-.36-1.39-.51-2.6,1.32-1.09,1.67.06,9.43-1.61.19-.04-.05-.93.39-.13,2-.38Zm-11.49,15.91l7.65-1.64,4.71-1.1-.21-.96-.14-.36,1.2-.21.78,3.66.57,1.96.2.92-1.15.25-.32-1.2-4.51.99-.08.02.32,3.15-1.98.36-.8-3.02-5.37,1.06.14.78-.95.25-.75-2.9-.39-2.85.79-.3.29,1.16Z"/>
        <path class="cls-1" d="m418.76,184.58l-1.8-.19-.37-2.24.04-1.76.8-.29,2.72-.16.75,2.57.04,1.31-2.18.75Z"/>
      </g>
    </g>
  </g>
</svg>